<svg xmlns="http://www.w3.org/2000/svg" viewBox="4378.233 -558.519 22.303 23.067">
  <defs>
    <style>
      .cls-1 {
        fill: #888;
        stroke: rgba(0,0,0,0);
      }
    </style>
  </defs>
  <path id="search_icon" data-name="search icon" class="cls-1" d="M197.39,739.367a6.766,6.766,0,0,0-5.142,5.281,6.944,6.944,0,0,0,7.6,8.574,7.041,7.041,0,1,0-2.461-13.855ZM190,746.738a8.512,8.512,0,0,1,.213-2.31,8.958,8.958,0,0,1,17.779,1.87,8.867,8.867,0,0,1-1.823,5.5c1.823,1.863,4.4,4.393,4.61,4.613a1.684,1.684,0,0,1,.106,2.2,1.575,1.575,0,0,1-2.142-.11l-4.6-4.731A8.846,8.846,0,0,1,190,746.738Z" transform="translate(4188.733 -1295)"/>
</svg>
